<?xml version="1.0" encoding="utf-8"?>
<!-- Generator: Adobe Illustrator 16.2.0, SVG Export Plug-In . SVG Version: 6.00 Build 0)  -->
<!DOCTYPE svg PUBLIC "-//W3C//DTD SVG 1.0//EN" "http://www.w3.org/TR/2001/REC-SVG-20010904/DTD/svg10.dtd">
<svg version="1.0" id="Calque_1" xmlns="http://www.w3.org/2000/svg" xmlns:xlink="http://www.w3.org/1999/xlink" x="0px" y="0px"
	 width="312px" height="273px" viewBox="0 0 312 273" enable-background="new 0 0 312 273" xml:space="preserve">
<g>
	<path fill="none" stroke="#FFFFFF" stroke-miterlimit="10" d="M137.84,152.477c6.936-24.307,12.311-52.712,14.202-85.127"/>
	<path fill="none" stroke="#FFFFFF" stroke-miterlimit="10" d="M158.389,174.252c9.692-33.107,17.397-75.7,18.319-128.569"/>
	<path fill="none" stroke="#FFFFFF" stroke-miterlimit="10" d="M195.054,147.775c2.076-14.933,3.403-31.285,3.654-49.093"/>
	<path fill="none" stroke="#FFFFFF" stroke-miterlimit="10" d="M171.399,232.023c4.97-10.879,10.035-24.096,14.436-39.729"/>
	<path fill="none" stroke="#FFFFFF" stroke-miterlimit="10" d="M28.598,143.387c0,0-10.225-76.038,7.442-114.705"/>
	<path fill="none" stroke="#FFFFFF" stroke-miterlimit="10" d="M66.372,132.641c0,0-8.665-93.626,14.335-132.626"/>
	<path fill="none" stroke="#FFFFFF" stroke-miterlimit="10" d="M90.049,134.292c0,0,2.352-99.276,24.505-121.276"/>
	<path fill="none" stroke="#FFFFFF" stroke-miterlimit="10" d="M203.704,167.791c5.689-46.618,17.824-102.273,43.67-134.109"/>
	<path fill="none" stroke="#FFFFFF" stroke-miterlimit="10" d="M198.709,248.016c0,0-0.171-15.564,1.241-38.768"/>
	<path fill="none" stroke="#FFFFFF" stroke-miterlimit="10" d="M220.825,178.008c3.158-9.855,5.897-20.846,7.882-32.992"/>
	<path fill="none" stroke="#FFFFFF" stroke-miterlimit="10" d="M183.501,244.121c0,0,11.226-10.428,22.884-31.994"/>
	<path fill="#FFFFFF" d="M129.468,243.082c1.424-2.473,2.908-5.154,4.436-8.047c-18.532,5.338-26.899-4.098-28.247-5.832
		c-1.492,2.535-2.943,4.91-4.338,7.121C102.764,237.57,116.633,249.055,129.468,243.082z"/>
	<path fill="#FFFFFF" d="M123.87,252.283c1.59-2.467,3.326-5.287,5.172-8.465c-12.769,5.379-26.255-5.584-27.993-7.068
		c-2.07,3.27-4.016,6.18-5.785,8.721C96.311,246.66,106.307,257.283,123.87,252.283z"/>
	<path fill="#FFFFFF" d="M198.334,247.996c-14.677-0.65-22.59-8.488-26.782-15.705c-1.666,3.639-3.321,7.012-4.94,10.135
		C168.224,243.945,184.844,259.012,198.334,247.996z"/>
	<path fill="#FFFFFF" d="M189.811,256.355c-3.344,2.131-6.794,2.934-10.089,2.934c-9.084,0.002-17.008-6.094-18.419-7.242
		c-1.944,3.309-3.766,6.186-5.401,8.633c1.82,1.211,16.571,10.416,31.006,1.246l0.202-0.129l0.137,0.197
		c0.038,0.055,3.866,5.479,9.56,5.785c3.653,0.199,7.289-1.727,10.812-5.707c-0.866-0.484-1.646-0.984-2.359-1.496
		c-1.929,1.201-3.758,1.676-5.436,1.676C194.438,262.254,190.586,257.412,189.811,256.355z"/>
	<path fill="#FFFFFF" d="M189.738,255.807l0.208-0.135l0.137,0.205c0.261,0.391,6.404,9.385,14.733,4.379
		c-6.071-4.586-6.459-9.91-6.401-11.678c-3.598,2.852-7.4,3.926-11.08,3.926c-10.143,0-19.374-8.143-20.963-9.617
		c-1.657,3.178-3.271,6.086-4.813,8.725C163.15,252.92,177.256,263.973,189.738,255.807z"/>
	<path fill="#FFFFFF" d="M137.599,152.408l0.241,0.068c-17.08-11.523-36.132-15.794-36.132-15.794
		c-24-6.333-49.667-3.333-49.667-3.333c-52.667,11-51.667,71.487-51.667,71.487c28,25.818,82.667,32.18,82.667,32.18
		c-59-1-76-20.334-76-20.334c11.667,21.668,59.667,36.334,59.667,36.334c6.333,1.99,12.431,3.783,18.308,5.408l-0.181-0.164
		C85.164,257.9,117.894,221.475,137.599,152.408z M72.708,212.35c0,0,10.667,9.666,21,2C93.708,214.35,83.042,228.682,72.708,212.35
		z"/>
	<path fill="#FFFFFF" d="M134.224,234.426c7.69-14.658,16.429-34.641,23.924-60.244l0.48,0.141
		c-7.49,25.582-16.221,45.566-23.916,60.244c0.837,1.111,10.58,13.24,31.417,7.701c1.652-3.184,3.342-6.625,5.043-10.348
		l0.227,0.104c-3.576-6.277-4.357-12.008-4.357-12.008c3-32.332-8.333-45.666-8.333-45.666
		c-4.921-9.094-12.555-16.227-20.652-21.725c-9.391,32.887-21.731,58.377-32.126,76.111
		C106.658,229.736,114.858,240.209,134.224,234.426z"/>
	<path fill="#FFFFFF" d="M134.458,235.053c-1.542,2.926-3.042,5.643-4.479,8.143c1,1.23,11.815,13.809,31.086,8.27
		c1.523-2.604,3.118-5.469,4.757-8.604c-3.708,0.949-7.073,1.35-10.094,1.35C142.474,244.213,135.721,236.633,134.458,235.053z"/>
	<path fill="#FFFFFF" d="M197.318,268.293c-0.181,0-0.361-0.004-0.542-0.014c-5.31-0.289-9.039-4.813-9.797-5.809
		c-14.639,9.133-29.502-0.143-31.356-1.375c-4.063,6.041-6.91,9.369-7.501,10.041c32.976,3.813,49.586,0.545,49.586,0.545
		c6.577-1.613,12.194-3.949,16.993-6.691c-2.602-0.779-4.788-1.689-6.63-2.674C204.59,266.283,200.976,268.293,197.318,268.293z"/>
	<path fill="#FFFFFF" d="M154.961,261.186c-16.858,4.834-29.201-6.662-30.871-8.324c-5.1,7.885-8.641,12.104-9.256,12.82
		c12.375,2.576,23.367,4.299,32.981,5.42l-0.183-0.166C147.691,270.871,150.589,267.648,154.961,261.186z"/>
	<path fill="#FFFFFF" d="M306.376,170.35c-2.667,39.332-29,24.666-29,24.666c-19-17.332-32.667,2.666-32.667,2.666
		c-5-21.666-24-19.666-24-19.666c-11.333,0.668-17.667-11.334-17.667-11.334c-7.667-16.666,3.667-27.666,3.667-27.666
		c-31.667,15.668-20.667,53.455-20.667,53.455c15,28.457,43.334,22.545,43.334,22.545c7,1.334,4,12.666,4,12.666
		c-6.615,22.994-31.678,20.689-34.419,20.365l-0.002,0.01c-0.019,0.113-1.647,11.297,16.116,16.525l-0.069,0.238
		c21.698-12.564,26.374-33.471,26.374-33.471c1.333-16,8.666-7.668,8.666-7.668c17.333,14,36.334,5.668,36.334,5.668
		C327.042,214.35,306.376,170.35,306.376,170.35z"/>
	<path fill="#FFFFFF" d="M151.541,253.369c-13.021,0-20.523-8.164-21.828-9.713c-1.908,3.301-3.704,6.225-5.345,8.775
		c1.251,1.268,13.817,13.395,31.023,8.113c1.607-2.4,3.398-5.219,5.312-8.463C157.4,252.984,154.34,253.369,151.541,253.369z"/>
	<path fill="#FFFFFF" d="M123.467,252.908c-17.109,4.6-27.044-5.414-28.498-7.016c-5.391,7.707-9.09,11.945-9.679,12.607
		c10.481,2.893,20.239,5.238,29.263,7.123l-0.187-0.166C114.462,265.352,118.057,261.236,123.467,252.908z"/>
	<path fill="#FFFFFF" d="M85.205,258.596c0.008-0.008,0.041-0.045,0.086-0.096c-0.091-0.025-0.184-0.051-0.274-0.076L85.205,258.596
		z"/>
	<path fill="#FFFFFF" d="M138.081,152.545l-0.24-0.068c0.072,0.049,0.145,0.1,0.217,0.148
		C138.065,152.598,138.073,152.572,138.081,152.545z"/>
	<path fill="#FFFFFF" d="M114.741,265.789c0.008-0.008,0.04-0.045,0.094-0.107c-0.094-0.02-0.187-0.039-0.281-0.059L114.741,265.789
		z"/>
	<path fill="#FFFFFF" d="M148.003,271.271c0.006-0.006,0.051-0.057,0.119-0.135c-0.102-0.012-0.205-0.023-0.307-0.035
		L148.003,271.271z"/>
	<path fill="#FFFFFF" d="M171.627,232.129l-0.228-0.105c0.051,0.09,0.1,0.178,0.152,0.268
		C171.577,232.236,171.602,232.184,171.627,232.129z"/>
	<path fill="#FFFFFF" d="M214.931,265.063l0.071-0.242c-0.099,0.057-0.2,0.113-0.3,0.17
		C214.78,265.014,214.853,265.039,214.931,265.063z"/>
	<path fill="#FFFFFF" d="M198.957,248.047l0.108-0.656l-0.518,0.434c-0.07,0.061-0.143,0.115-0.214,0.172
		c0.126,0.006,0.248,0.016,0.375,0.02C198.709,248.016,198.797,248.029,198.957,248.047z"/>
	<path fill="#FFFFFF" d="M105.873,228.656l-0.417,0.275c0.007,0.01,0.077,0.111,0.202,0.271c0.091-0.154,0.182-0.311,0.273-0.467
		C105.899,228.693,105.875,228.66,105.873,228.656z"/>
	<path fill="#FFFFFF" d="M101.196,236.217l-0.335,0.371c0.009,0.008,0.074,0.064,0.188,0.162c0.09-0.143,0.18-0.281,0.271-0.426
		C101.245,236.26,101.203,236.223,101.196,236.217z"/>
	<path fill="#FFFFFF" d="M95.166,245.359l-0.388,0.314c0.008,0.01,0.076,0.09,0.191,0.219c0.099-0.141,0.195-0.279,0.294-0.422
		C95.208,245.408,95.17,245.365,95.166,245.359z"/>
</g>
<g>
</g>
<g>
</g>
<g>
</g>
<g>
</g>
<g>
</g>
<g>
</g>
<g>
</g>
<g>
</g>
<g>
</g>
<g>
</g>
<g>
</g>
<g>
</g>
<g>
</g>
<g>
</g>
<g>
</g>
</svg>
