<?xml version="1.0" encoding="utf-8"?>
<!-- Generator: Adobe Illustrator 16.2.0, SVG Export Plug-In . SVG Version: 6.00 Build 0)  -->
<!DOCTYPE svg PUBLIC "-//W3C//DTD SVG 1.0//EN" "http://www.w3.org/TR/2001/REC-SVG-20010904/DTD/svg10.dtd">
<svg version="1.0" id="Calque_1" xmlns="http://www.w3.org/2000/svg" xmlns:xlink="http://www.w3.org/1999/xlink" x="0px" y="0px"
	 width="952px" height="27px" viewBox="0 0 952 27" enable-background="new 0 0 952 27" xml:space="preserve">
<path fill="#FFFFFF" d="M918.715,14.131c-18.776,0-34.144-6.043-34.144-13.5c0,7.456-15.294,13.5-34.071,13.5
	s-34.035-6.043-34.035-13.5c0,7.456-15.241,13.5-34.019,13.5c-18.778,0-34.008-6.043-34.008-13.5c0,7.456-15.229,13.5-34.005,13.5
	c-18.777,0-34.004-6.043-34.004-13.5c0,7.456-15.224,13.5-34.001,13.5c-18.776,0-34-6.043-34-13.5c0,7.456-15.223,13.5-34,13.5
	c-18.776,0-34-6.043-34-13.5c0,7.456-15.223,13.5-34,13.5c-18.776,0-34-6.043-34-13.5c0,7.456-15.223,13.5-34,13.5
	s-34-6.043-34-13.5c0,7.456-15.222,13.5-34,13.5s-34-6.043-34-13.5c0,7.456-15.222,13.5-34,13.5s-34-6.043-34-13.5
	c0,7.456-15.222,13.5-34,13.5s-34-6.043-34-13.5c0,7.456-15.222,13.5-34,13.5s-34-6.043-34-13.5c0,7.456-15.222,13.5-34,13.5
	s-34-6.043-34-13.5c0,7.456-14.937,13.5-33.714,13.5C15.937,14.131,1,8.087,1,0.631V28h67.429h68h68h68h68h68h68h68h68h68h68h68h68
	H953V0.631C953,8.087,937.492,14.131,918.715,14.131z"/>
</svg>
